MFile 1 8 480
MTrk
0 TimeSig 4/4 24 8
0 KeySig 0 major
0 SMPTE 33 0 0 0 0
0 Tempo 500000
0 Meta TrkEnd
TrkEnd
MTrk
0 Meta TrkName "Intro"
0 Meta InstrName "Seismic"
0 On ch=1 n=42 v=115
120 On ch=1 n=42 v=0
360 On ch=1 n=42 v=115
480 On ch=1 n=42 v=0
480 On ch=1 n=44 v=115
600 On ch=1 n=44 v=0
720 On ch=1 n=42 v=115
840 On ch=1 n=42 v=0
960 On ch=1 n=38 v=115
1080 On ch=1 n=38 v=0
1200 On ch=1 n=42 v=115
1320 On ch=1 n=40 v=115
1320 On ch=1 n=42 v=0
1440 On ch=1 n=40 v=0
1440 On ch=1 n=44 v=115
1560 On ch=1 n=44 v=0
1680 On ch=1 n=46 v=115
1680 On ch=1 n=52 v=115
1800 On ch=1 n=46 v=0
1800 On ch=1 n=52 v=0
1920 On ch=1 n=42 v=115
2040 On ch=1 n=42 v=0
2280 On ch=1 n=42 v=115
2400 On ch=1 n=42 v=0
2400 On ch=1 n=42 v=115
2520 On ch=1 n=42 v=0
2560 On ch=1 n=42 v=115
2680 On ch=1 n=42 v=0
2720 On ch=1 n=42 v=115
2840 On ch=1 n=42 v=0
2880 On ch=1 n=38 v=115
3000 On ch=1 n=38 v=0
3120 On ch=1 n=42 v=115
3240 On ch=1 n=40 v=115
3240 On ch=1 n=42 v=0
3360 On ch=1 n=40 v=0
3360 On ch=1 n=44 v=115
3480 On ch=1 n=44 v=0
3600 On ch=1 n=42 v=115
3720 On ch=1 n=42 v=0
3720 On ch=1 n=42 v=115
3840 On ch=1 n=42 v=0
3840 On ch=1 n=42 v=115
3960 On ch=1 n=42 v=0
4080 On ch=1 n=42 v=115
4200 On ch=1 n=42 v=0
4200 On ch=1 n=42 v=115
4320 On ch=1 n=42 v=0
4320 On ch=1 n=44 v=115
4440 On ch=1 n=44 v=0
4560 On ch=1 n=42 v=115
4620 On ch=1 n=42 v=0
4620 On ch=1 n=42 v=115
4680 On ch=1 n=42 v=0
4680 On ch=1 n=42 v=115
4740 On ch=1 n=42 v=0
4740 On ch=1 n=42 v=115
4800 On ch=1 n=38 v=115
4860 On ch=1 n=42 v=0
4920 On ch=1 n=38 v=0
5040 On ch=1 n=42 v=115
5160 On ch=1 n=40 v=115
5160 On ch=1 n=42 v=0
5280 On ch=1 n=40 v=0
5280 On ch=1 n=44 v=115
5400 On ch=1 n=44 v=0
5520 On ch=1 n=46 v=115
5640 On ch=1 n=46 v=0
5760 On ch=1 n=42 v=115
5880 On ch=1 n=42 v=0
5880 On ch=1 n=42 v=115
6000 On ch=1 n=42 v=0
6000 On ch=1 n=42 v=115
6120 On ch=1 n=42 v=0
6120 On ch=1 n=42 v=115
6240 On ch=1 n=42 v=0
6240 On ch=1 n=44 v=115
6360 On ch=1 n=44 v=0
6480 On ch=1 n=42 v=115
6600 On ch=1 n=42 v=0
6720 On ch=1 n=36 v=36
6720 On ch=1 n=38 v=107
6720 On ch=1 n=39 v=98
6720 On ch=1 n=42 v=81
6720 On ch=1 n=44 v=71
6760 Off ch=1 n=38 v=34
6760 Off ch=1 n=42 v=34
6760 On ch=1 n=38 v=13
6760 On ch=1 n=42 v=93
6800 On ch=1 n=38 v=27
6800 On ch=1 n=42 v=107
6800 Off ch=1 n=38 v=51
6800 Off ch=1 n=42 v=51
6840 Off ch=1 n=38 v=67
6840 Off ch=1 n=42 v=51
6840 On ch=1 n=38 v=40
6840 On ch=1 n=42 v=107
6840 Off ch=1 n=36 v=46
6840 Off ch=1 n=39 v=71
6840 Off ch=1 n=44 v=84
6880 Off ch=1 n=38 v=84
6880 On ch=1 n=38 v=54
6920 On ch=1 n=38 v=67
6920 Off ch=1 n=38 v=101
6960 Off ch=1 n=38 v=17
6960 On ch=1 n=36 v=71
6960 On ch=1 n=38 v=81
6960 On ch=1 n=42 v=107
6960 On ch=1 n=44 v=107
6960 On ch=1 n=52 v=107
6960 Off ch=1 n=42 v=67
7000 Off ch=1 n=38 v=34
7000 On ch=1 n=38 v=93
7040 On ch=1 n=38 v=107
7040 Off ch=1 n=38 v=51
7080 Off ch=1 n=36 v=55
7080 Off ch=1 n=42 v=84
7080 Off ch=1 n=44 v=101
7080 Off ch=1 n=52 v=13
7160 Off ch=1 n=38 v=67
7200 On ch=1 n=36 v=107
7200 On ch=1 n=42 v=36
7320 Off ch=1 n=36 v=64
7320 Off ch=1 n=42 v=13
7440 On ch=1 n=38 v=107
7440 On ch=1 n=42 v=71
7440 On ch=1 n=46 v=107
7480 On ch=1 n=38 v=13
7480 Off ch=1 n=38 v=84
7520 Off ch=1 n=38 v=101
7520 On ch=1 n=38 v=27
7560 On ch=1 n=38 v=40
7560 Off ch=1 n=42 v=26
7560 Off ch=1 n=46 v=64
7560 Off ch=1 n=38 v=51
7600 On ch=1 n=38 v=54
7600 Off ch=1 n=38 v=26
7680 On ch=1 n=42 v=115
7720 Off ch=1 n=38 v=51
7800 On ch=1 n=42 v=0
7920 On ch=1 n=42 v=115
8040 On ch=1 n=42 v=0
8160 On ch=1 n=44 v=115
8280 On ch=1 n=44 v=0
8400 On ch=1 n=42 v=115
8400 On ch=1 n=46 v=115
8520 On ch=1 n=42 v=0
8520 On ch=1 n=46 v=0
8640 On ch=1 n=38 v=115
8640 On ch=1 n=42 v=115
8670 On ch=1 n=42 v=0
8670 On ch=1 n=42 v=115
8700 On ch=1 n=42 v=0
8700 On ch=1 n=42 v=115
8730 On ch=1 n=42 v=0
8730 On ch=1 n=42 v=115
8760 On ch=1 n=38 v=0
8760 On ch=1 n=42 v=0
8760 On ch=1 n=42 v=115
8790 On ch=1 n=42 v=0
8790 On ch=1 n=42 v=115
8820 On ch=1 n=42 v=0
8820 On ch=1 n=42 v=115
8850 On ch=1 n=42 v=0
8850 On ch=1 n=42 v=115
8880 On ch=1 n=42 v=0
8880 On ch=1 n=42 v=115
8910 On ch=1 n=42 v=0
8910 On ch=1 n=42 v=115
8940 On ch=1 n=42 v=0
8940 On ch=1 n=42 v=115
8970 On ch=1 n=42 v=0
8970 On ch=1 n=42 v=115
9000 On ch=1 n=40 v=116
9000 On ch=1 n=42 v=0
9000 On ch=1 n=42 v=115
9030 On ch=1 n=42 v=0
9030 On ch=1 n=42 v=115
9060 On ch=1 n=42 v=0
9060 On ch=1 n=42 v=115
9090 On ch=1 n=42 v=0
9090 On ch=1 n=42 v=115
9120 On ch=1 n=40 v=0
9120 On ch=1 n=44 v=115
9210 On ch=1 n=42 v=0
9240 On ch=1 n=44 v=0
9360 On ch=1 n=46 v=115
9360 On ch=1 n=52 v=116
9480 On ch=1 n=46 v=0
9480 On ch=1 n=52 v=0
9600 On ch=1 n=42 v=116
9720 On ch=1 n=42 v=0
9960 On ch=1 n=42 v=116
10080 On ch=1 n=42 v=0
10080 On ch=1 n=44 v=116
10200 On ch=1 n=44 v=0
10320 On ch=1 n=42 v=117
10440 On ch=1 n=42 v=0
10560 On ch=1 n=38 v=119
10680 On ch=1 n=38 v=0
10800 On ch=1 n=42 v=118
10920 On ch=1 n=40 v=120
10920 On ch=1 n=42 v=0
11040 On ch=1 n=40 v=0
11040 On ch=1 n=44 v=118
11160 On ch=1 n=44 v=0
11280 On ch=1 n=46 v=119
11400 On ch=1 n=46 v=0
11520 On ch=1 n=42 v=119
11640 On ch=1 n=42 v=0
11760 On ch=1 n=42 v=120
11880 On ch=1 n=42 v=0
11880 On ch=1 n=42 v=120
12000 On ch=1 n=42 v=0
12000 On ch=1 n=44 v=120
12120 On ch=1 n=44 v=0
12240 On ch=1 n=42 v=121
12360 On ch=1 n=42 v=0
12480 On ch=1 n=38 v=124
12600 On ch=1 n=38 v=0
12720 On ch=1 n=42 v=122
12840 On ch=1 n=40 v=125
12840 On ch=1 n=42 v=0
12960 On ch=1 n=40 v=0
12960 On ch=1 n=44 v=123
13080 On ch=1 n=44 v=0
13200 On ch=1 n=46 v=124
13320 On ch=1 n=46 v=0
13440 On ch=1 n=53 v=127
13560 Off ch=1 n=53 v=64
13920 On ch=1 n=53 v=127
14040 Off ch=1 n=53 v=64
14400 On ch=1 n=38 v=127
14400 On ch=1 n=44 v=127
14400 On ch=1 n=46 v=127
14520 Off ch=1 n=38 v=64
14520 Off ch=1 n=44 v=64
14520 Off ch=1 n=46 v=64
14640 On ch=1 n=53 v=127
14760 Off ch=1 n=53 v=64
14880 On ch=1 n=53 v=37
15000 On ch=1 n=53 v=61
15000 Off ch=1 n=53 v=64
15120 On ch=1 n=53 v=88
15120 Off ch=1 n=53 v=64
15240 On ch=1 n=53 v=112
15240 Off ch=1 n=53 v=64
15360 On ch=1 n=42 v=127
15360 Off ch=1 n=53 v=64
15480 Off ch=1 n=42 v=64
15520 On ch=1 n=42 v=127
15640 Off ch=1 n=42 v=64
15680 On ch=1 n=42 v=60
15800 Off ch=1 n=42 v=64
15840 On ch=1 n=36 v=60
15840 On ch=1 n=42 v=60
15960 Off ch=1 n=36 v=64
15960 Off ch=1 n=42 v=64
16000 On ch=1 n=42 v=61
16120 Off ch=1 n=42 v=64
16160 On ch=1 n=42 v=61
16280 Off ch=1 n=42 v=64
16320 On ch=1 n=38 v=62
16320 On ch=1 n=42 v=62
16440 Off ch=1 n=38 v=64
16440 Off ch=1 n=42 v=64
16480 On ch=1 n=42 v=63
16560 On ch=1 n=36 v=63
16600 Off ch=1 n=42 v=64
16640 On ch=1 n=42 v=63
16680 Off ch=1 n=36 v=64
16760 Off ch=1 n=42 v=64
16800 On ch=1 n=42 v=64
16920 Off ch=1 n=42 v=64
16960 On ch=1 n=42 v=64
17040 Off ch=1 n=42 v=64
17040 On ch=1 n=36 v=65
17040 On ch=1 n=42 v=65
17120 Off ch=1 n=42 v=64
17120 On ch=1 n=42 v=65
17160 Off ch=1 n=36 v=64
17200 On ch=1 n=42 v=65
17200 Off ch=1 n=42 v=64
17280 Off ch=1 n=42 v=64
17280 On ch=1 n=42 v=55
17400 Off ch=1 n=42 v=64
17440 On ch=1 n=42 v=56
17520 On ch=1 n=36 v=56
17560 Off ch=1 n=42 v=64
17600 On ch=1 n=42 v=56
17640 Off ch=1 n=36 v=64
17720 Off ch=1 n=42 v=64
17760 On ch=1 n=36 v=56
17760 On ch=1 n=42 v=56
17840 On ch=1 n=42 v=56
17840 Off ch=1 n=42 v=64
17880 Off ch=1 n=36 v=64
17920 Off ch=1 n=42 v=64
17920 On ch=1 n=42 v=56
18000 On ch=1 n=42 v=56
18000 Off ch=1 n=42 v=64
18080 On ch=1 n=42 v=57
18080 Off ch=1 n=42 v=64
18200 Off ch=1 n=42 v=64
18240 On ch=1 n=38 v=57
18240 On ch=1 n=42 v=57
18240 On ch=1 n=44 v=45
18360 Off ch=1 n=38 v=64
18360 Off ch=1 n=42 v=64
18360 Off ch=1 n=44 v=64
18400 On ch=1 n=42 v=57
18480 On ch=1 n=36 v=57
18520 Off ch=1 n=42 v=64
18560 On ch=1 n=42 v=58
18600 Off ch=1 n=36 v=64
18680 Off ch=1 n=42 v=64
18720 On ch=1 n=46 v=58
18840 Off ch=1 n=46 v=64
19040 On ch=1 n=42 v=59
19160 Off ch=1 n=42 v=64
19200 On ch=1 n=42 v=59
19320 Off ch=1 n=42 v=64
19360 On ch=1 n=42 v=60
19440 On ch=1 n=40 v=60
19480 Off ch=1 n=42 v=64
19520 On ch=1 n=42 v=60
19560 Off ch=1 n=40 v=64
19640 Off ch=1 n=42 v=64
19680 On ch=1 n=36 v=60
19680 On ch=1 n=42 v=60
19800 Off ch=1 n=36 v=64
19800 Off ch=1 n=42 v=64
19840 On ch=1 n=42 v=61
19960 Off ch=1 n=42 v=64
20000 On ch=1 n=42 v=61
20120 Off ch=1 n=42 v=64
20160 On ch=1 n=38 v=62
20160 On ch=1 n=42 v=62
20280 Off ch=1 n=38 v=64
20280 Off ch=1 n=42 v=64
20320 On ch=1 n=42 v=63
20440 Off ch=1 n=42 v=64
20480 On ch=1 n=42 v=63
20600 Off ch=1 n=42 v=64
20640 On ch=1 n=36 v=64
20640 On ch=1 n=40 v=64
20640 On ch=1 n=42 v=64
20760 Off ch=1 n=36 v=64
20760 Off ch=1 n=40 v=64
20760 Off ch=1 n=42 v=64
20800 On ch=1 n=42 v=64
20880 On ch=1 n=42 v=65
20880 Off ch=1 n=42 v=64
20960 On ch=1 n=42 v=65
20960 Off ch=1 n=42 v=64
21040 Off ch=1 n=42 v=64
21040 On ch=1 n=42 v=65
21120 On ch=1 n=40 v=25
21120 On ch=1 n=42 v=55
21120 Off ch=1 n=42 v=64
21240 Off ch=1 n=40 v=64
21240 Off ch=1 n=42 v=64
21280 On ch=1 n=40 v=26
21280 On ch=1 n=42 v=56
21400 Off ch=1 n=40 v=64
21400 Off ch=1 n=42 v=64
21440 On ch=1 n=40 v=26
21440 On ch=1 n=42 v=56
21560 Off ch=1 n=40 v=64
21560 Off ch=1 n=42 v=64
21600 On ch=1 n=36 v=56
21600 On ch=1 n=40 v=26
21600 On ch=1 n=42 v=56
21680 Off ch=1 n=40 v=64
21680 Off ch=1 n=42 v=64
21680 On ch=1 n=40 v=27
21680 On ch=1 n=42 v=56
21720 Off ch=1 n=36 v=64
21760 On ch=1 n=40 v=27
21760 On ch=1 n=42 v=56
21760 Off ch=1 n=40 v=64
21760 Off ch=1 n=42 v=64
21840 Off ch=1 n=40 v=64
21840 Off ch=1 n=42 v=64
21840 On ch=1 n=40 v=27
21840 On ch=1 n=42 v=56
21920 Off ch=1 n=40 v=64
21920 Off ch=1 n=42 v=64
21920 On ch=1 n=40 v=28
21920 On ch=1 n=42 v=57
22000 On ch=1 n=40 v=28
22000 Off ch=1 n=40 v=64
22040 Off ch=1 n=42 v=64
22080 Off ch=1 n=40 v=64
22080 On ch=1 n=38 v=57
22080 On ch=1 n=40 v=57
22080 On ch=1 n=44 v=50
22080 On ch=1 n=46 v=57
22200 Off ch=1 n=38 v=64
22200 Off ch=1 n=40 v=64
22200 Off ch=1 n=44 v=64
22200 Off ch=1 n=46 v=64
22240 On ch=1 n=40 v=57
22320 On ch=1 n=36 v=57
22360 Off ch=1 n=40 v=64
22400 On ch=1 n=40 v=58
22400 On ch=1 n=42 v=58
22440 Off ch=1 n=36 v=64
22520 Off ch=1 n=40 v=64
22520 Off ch=1 n=42 v=64
22560 On ch=1 n=36 v=58
22560 On ch=1 n=40 v=58
22560 On ch=1 n=42 v=58
22680 Off ch=1 n=36 v=64
22680 Off ch=1 n=40 v=64
22680 Off ch=1 n=42 v=64
22720 On ch=1 n=40 v=58
22720 On ch=1 n=42 v=58
22840 Off ch=1 n=40 v=64
22840 Off ch=1 n=42 v=64
22880 On ch=1 n=40 v=59
22880 On ch=1 n=42 v=59
23000 Off ch=1 n=40 v=64
23000 Off ch=1 n=42 v=64
23040 On ch=1 n=42 v=73
23160 On ch=1 n=42 v=0
23160 Meta TrkEnd
TrkEnd
MTrk
0 Meta TrkName "Verse"
0 Meta InstrName "Seismic"
15360 On ch=1 n=36 v=127
15360 On ch=1 n=37 v=115
15360 On ch=1 n=37 v=115
15360 On ch=1 n=42 v=127
15360 On ch=1 n=49 v=127
15480 On ch=1 n=36 v=0
15480 On ch=1 n=37 v=0
15480 On ch=1 n=37 v=0
15480 On ch=1 n=42 v=0
15480 On ch=1 n=47 v=115
15480 On ch=1 n=49 v=0
15520 On ch=1 n=42 v=127
15600 On ch=1 n=47 v=0
15640 On ch=1 n=42 v=0
15680 On ch=1 n=42 v=127
15800 On ch=1 n=42 v=0
15840 On ch=1 n=42 v=127
15960 On ch=1 n=42 v=0
16000 On ch=1 n=42 v=127
16080 On ch=1 n=36 v=127
16080 On ch=1 n=37 v=115
16080 On ch=1 n=37 v=115
16120 On ch=1 n=42 v=0
16160 On ch=1 n=42 v=127
16200 On ch=1 n=36 v=0
16200 On ch=1 n=37 v=0
16200 On ch=1 n=37 v=0
16280 On ch=1 n=42 v=0
16320 On ch=1 n=38 v=127
16320 On ch=1 n=39 v=115
16320 On ch=1 n=58 v=115
16440 On ch=1 n=38 v=0
16440 On ch=1 n=39 v=0
16440 On ch=1 n=42 v=127
16440 On ch=1 n=58 v=0
16560 On ch=1 n=42 v=0
16560 On ch=1 n=42 v=127
16560 On ch=1 n=54 v=127
16680 On ch=1 n=42 v=0
16680 On ch=1 n=46 v=127
16680 On ch=1 n=54 v=0
16800 On ch=1 n=42 v=127
16800 On ch=1 n=46 v=0
16920 On ch=1 n=42 v=0
17040 On ch=1 n=36 v=127
17160 On ch=1 n=36 v=0
17160 On ch=1 n=42 v=127
17280 On ch=1 n=42 v=0
17400 On ch=1 n=42 v=127
17400 On ch=1 n=47 v=115
17520 On ch=1 n=36 v=127
17520 On ch=1 n=42 v=0
17520 On ch=1 n=44 v=127
17520 On ch=1 n=47 v=0
17640 On ch=1 n=36 v=0
17640 On ch=1 n=44 v=0
17640 On ch=1 n=47 v=115
17760 On ch=1 n=42 v=127
17760 On ch=1 n=47 v=0
17760 On ch=1 n=53 v=127
17880 On ch=1 n=42 v=0
17880 On ch=1 n=46 v=127
17880 On ch=1 n=53 v=0
18000 On ch=1 n=36 v=127
18000 On ch=1 n=42 v=127
18000 On ch=1 n=46 v=0
18120 On ch=1 n=36 v=0
18120 On ch=1 n=42 v=0
18240 On ch=1 n=38 v=127
18240 On ch=1 n=39 v=115
18360 On ch=1 n=38 v=0
18360 On ch=1 n=39 v=0
18480 On ch=1 n=42 v=127
18600 On ch=1 n=42 v=0
18720 On ch=1 n=42 v=127
18840 On ch=1 n=42 v=0
19080 On ch=1 n=42 v=127
19200 On ch=1 n=42 v=0
19200 On ch=1 n=42 v=127
19320 On ch=1 n=42 v=0
19440 On ch=1 n=36 v=127
19440 On ch=1 n=44 v=127
19560 On ch=1 n=36 v=0
19560 On ch=1 n=42 v=127
19560 On ch=1 n=44 v=0
19560 On ch=1 n=47 v=115
19680 On ch=1 n=42 v=0
19680 On ch=1 n=42 v=127
19680 On ch=1 n=47 v=0
19800 On ch=1 n=42 v=0
19800 On ch=1 n=46 v=127
19920 On ch=1 n=36 v=127
19920 On ch=1 n=37 v=115
19920 On ch=1 n=37 v=115
19920 On ch=1 n=46 v=0
20040 On ch=1 n=36 v=0
20040 On ch=1 n=37 v=0
20040 On ch=1 n=37 v=0
20160 On ch=1 n=38 v=127
20160 On ch=1 n=39 v=115
20160 On ch=1 n=58 v=115
20280 On ch=1 n=38 v=0
20280 On ch=1 n=39 v=0
20280 On ch=1 n=58 v=0
20400 On ch=1 n=42 v=127
20400 On ch=1 n=54 v=127
20520 On ch=1 n=42 v=0
20520 On ch=1 n=54 v=0
20640 On ch=1 n=42 v=127
20760 On ch=1 n=42 v=0
21000 On ch=1 n=42 v=127
21120 On ch=1 n=42 v=0
21240 On ch=1 n=42 v=127
21240 On ch=1 n=47 v=115
21360 On ch=1 n=36 v=127
21360 On ch=1 n=42 v=0
21360 On ch=1 n=44 v=127
21360 On ch=1 n=47 v=0
21480 On ch=1 n=36 v=0
21480 On ch=1 n=44 v=0
21600 On ch=1 n=42 v=127
21600 On ch=1 n=53 v=127
21720 On ch=1 n=42 v=0
21720 On ch=1 n=46 v=127
21720 On ch=1 n=53 v=0
21840 On ch=1 n=36 v=127
21840 On ch=1 n=42 v=127
21840 On ch=1 n=46 v=0
21960 On ch=1 n=36 v=0
21960 On ch=1 n=42 v=0
22080 On ch=1 n=38 v=127
22080 On ch=1 n=39 v=115
22200 On ch=1 n=38 v=0
22200 On ch=1 n=39 v=0
22200 On ch=1 n=47 v=115
22320 On ch=1 n=42 v=127
22320 On ch=1 n=47 v=0
22320 On ch=1 n=52 v=127
22440 On ch=1 n=42 v=0
22440 On ch=1 n=52 v=0
22560 On ch=1 n=42 v=127
22680 On ch=1 n=42 v=0
22800 On ch=1 n=38 v=127
22920 On ch=1 n=38 v=0
22920 On ch=1 n=42 v=127
23040 On ch=1 n=42 v=0
23040 On ch=1 n=42 v=127
23040 On ch=1 n=53 v=127
23160 On ch=1 n=42 v=0
23160 On ch=1 n=47 v=115
23160 On ch=1 n=53 v=0
23280 On ch=1 n=44 v=127
23280 On ch=1 n=47 v=0
23400 On ch=1 n=42 v=127
23400 On ch=1 n=44 v=0
23520 On ch=1 n=36 v=127
23520 On ch=1 n=42 v=0
23520 On ch=1 n=42 v=127
23640 On ch=1 n=36 v=0
23640 On ch=1 n=42 v=0
23640 On ch=1 n=46 v=127
23760 On ch=1 n=36 v=127
23760 On ch=1 n=37 v=115
23760 On ch=1 n=37 v=115
23760 On ch=1 n=46 v=0
23880 On ch=1 n=36 v=0
23880 On ch=1 n=37 v=0
23880 On ch=1 n=37 v=0
24000 On ch=1 n=38 v=127
24000 On ch=1 n=39 v=115
24000 On ch=1 n=58 v=115
24120 On ch=1 n=38 v=0
24120 On ch=1 n=39 v=0
24120 On ch=1 n=58 v=0
24240 On ch=1 n=42 v=127
24240 On ch=1 n=54 v=127
24360 On ch=1 n=42 v=0
24360 On ch=1 n=46 v=127
24360 On ch=1 n=54 v=0
24480 On ch=1 n=42 v=127
24480 On ch=1 n=46 v=0
24600 On ch=1 n=42 v=0
24720 On ch=1 n=44 v=127
24840 On ch=1 n=42 v=127
24840 On ch=1 n=44 v=0
24960 On ch=1 n=42 v=0
25080 On ch=1 n=42 v=127
25200 On ch=1 n=36 v=127
25200 On ch=1 n=42 v=0
25200 On ch=1 n=44 v=127
25320 On ch=1 n=36 v=0
25320 On ch=1 n=44 v=0
25320 On ch=1 n=47 v=115
25440 On ch=1 n=42 v=127
25440 On ch=1 n=47 v=0
25440 On ch=1 n=53 v=127
25560 On ch=1 n=42 v=0
25560 On ch=1 n=46 v=127
25560 On ch=1 n=53 v=0
25680 On ch=1 n=36 v=127
25680 On ch=1 n=42 v=127
25680 On ch=1 n=46 v=0
25800 On ch=1 n=36 v=0
25800 On ch=1 n=42 v=0
25920 On ch=1 n=38 v=127
25920 On ch=1 n=39 v=115
26040 On ch=1 n=38 v=0
26040 On ch=1 n=39 v=0
26040 On ch=1 n=42 v=127
26160 On ch=1 n=42 v=0
26160 On ch=1 n=42 v=127
26280 On ch=1 n=42 v=0
26400 On ch=1 n=42 v=127
26520 On ch=1 n=42 v=0
26640 On ch=1 n=42 v=127
26700 On ch=1 n=42 v=0
26700 On ch=1 n=42 v=127
26760 On ch=1 n=42 v=0
26760 On ch=1 n=42 v=127
26820 On ch=1 n=42 v=0
26820 On ch=1 n=42 v=127
26880 On ch=1 n=42 v=0
26880 On ch=1 n=42 v=127
27000 On ch=1 n=42 v=0
27120 On ch=1 n=36 v=127
27120 On ch=1 n=44 v=127
27240 On ch=1 n=36 v=0
27240 On ch=1 n=42 v=127
27240 On ch=1 n=44 v=0
27240 On ch=1 n=47 v=115
27360 On ch=1 n=42 v=0
27360 On ch=1 n=42 v=127
27360 On ch=1 n=47 v=0
27360 On ch=1 n=53 v=127
27480 On ch=1 n=42 v=0
27480 On ch=1 n=53 v=0
27520 On ch=1 n=42 v=127
27600 On ch=1 n=36 v=127
27600 On ch=1 n=37 v=115
27600 On ch=1 n=37 v=115
27640 On ch=1 n=42 v=0
27680 On ch=1 n=42 v=127
27720 On ch=1 n=36 v=0
27720 On ch=1 n=37 v=0
27720 On ch=1 n=37 v=0
27800 On ch=1 n=42 v=0
27840 On ch=1 n=38 v=127
27840 On ch=1 n=39 v=115
27840 On ch=1 n=58 v=115
27960 On ch=1 n=38 v=0
27960 On ch=1 n=39 v=0
27960 On ch=1 n=58 v=0
28080 On ch=1 n=42 v=127
28080 On ch=1 n=54 v=127
28200 On ch=1 n=42 v=0
28200 On ch=1 n=54 v=0
28320 On ch=1 n=42 v=127
28440 On ch=1 n=38 v=127
28440 On ch=1 n=42 v=0
28440 On ch=1 n=42 v=127
28560 On ch=1 n=38 v=0
28560 On ch=1 n=42 v=0
28680 On ch=1 n=42 v=127
28800 On ch=1 n=42 v=0
28920 On ch=1 n=42 v=127
28920 On ch=1 n=47 v=115
29040 On ch=1 n=36 v=127
29040 On ch=1 n=42 v=0
29040 On ch=1 n=44 v=127
29040 On ch=1 n=47 v=0
29160 On ch=1 n=36 v=0
29160 On ch=1 n=44 v=0
29280 On ch=1 n=42 v=127
29400 On ch=1 n=42 v=0
29400 On ch=1 n=46 v=127
29520 On ch=1 n=36 v=127
29520 On ch=1 n=42 v=127
29520 On ch=1 n=46 v=0
29640 On ch=1 n=36 v=0
29640 On ch=1 n=42 v=0
29760 On ch=1 n=38 v=127
29880 Off ch=1 n=38 v=64
30120 On ch=1 n=38 v=127
30240 Off ch=1 n=38 v=64
30480 On ch=1 n=38 v=127
30600 Off ch=1 n=38 v=64
30600 Meta TrkEnd
TrkEnd
MTrk
0 Meta TrkName "Verse"
0 Meta InstrName "Seismic"
30720 On ch=1 n=36 v=127
30720 On ch=1 n=37 v=115
30720 On ch=1 n=37 v=115
30720 On ch=1 n=42 v=127
30720 On ch=1 n=49 v=127
30840 On ch=1 n=36 v=0
30840 On ch=1 n=37 v=0
30840 On ch=1 n=37 v=0
30840 On ch=1 n=42 v=0
30840 On ch=1 n=47 v=115
30840 On ch=1 n=49 v=0
30880 On ch=1 n=42 v=127
30960 On ch=1 n=47 v=0
31000 On ch=1 n=42 v=0
31040 On ch=1 n=42 v=127
31160 On ch=1 n=42 v=0
31200 On ch=1 n=42 v=127
31320 On ch=1 n=42 v=0
31360 On ch=1 n=42 v=127
31440 On ch=1 n=36 v=127
31440 On ch=1 n=37 v=115
31440 On ch=1 n=37 v=115
31480 On ch=1 n=42 v=0
31520 On ch=1 n=42 v=127
31560 On ch=1 n=36 v=0
31560 On ch=1 n=37 v=0
31560 On ch=1 n=37 v=0
31640 On ch=1 n=42 v=0
31680 On ch=1 n=38 v=127
31680 On ch=1 n=39 v=115
31680 On ch=1 n=58 v=115
31800 On ch=1 n=38 v=0
31800 On ch=1 n=39 v=0
31800 On ch=1 n=42 v=127
31800 On ch=1 n=58 v=0
31920 On ch=1 n=42 v=0
31920 On ch=1 n=42 v=127
31920 On ch=1 n=54 v=127
32040 On ch=1 n=42 v=0
32040 On ch=1 n=46 v=127
32040 On ch=1 n=54 v=0
32160 On ch=1 n=42 v=127
32160 On ch=1 n=46 v=0
32280 On ch=1 n=42 v=0
32400 On ch=1 n=36 v=127
32520 On ch=1 n=36 v=0
32520 On ch=1 n=42 v=127
32640 On ch=1 n=42 v=0
32760 On ch=1 n=42 v=127
32760 On ch=1 n=47 v=115
32880 On ch=1 n=36 v=127
32880 On ch=1 n=42 v=0
32880 On ch=1 n=44 v=127
32880 On ch=1 n=47 v=0
33000 On ch=1 n=36 v=0
33000 On ch=1 n=44 v=0
33000 On ch=1 n=47 v=115
33120 On ch=1 n=42 v=127
33120 On ch=1 n=47 v=0
33120 On ch=1 n=53 v=127
33240 On ch=1 n=42 v=0
33240 On ch=1 n=46 v=127
33240 On ch=1 n=53 v=0
33360 On ch=1 n=36 v=127
33360 On ch=1 n=42 v=127
33360 On ch=1 n=46 v=0
33480 On ch=1 n=36 v=0
33480 On ch=1 n=42 v=0
33600 On ch=1 n=38 v=127
33600 On ch=1 n=39 v=115
33720 On ch=1 n=38 v=0
33720 On ch=1 n=39 v=0
33840 On ch=1 n=42 v=127
33960 On ch=1 n=42 v=0
34080 On ch=1 n=42 v=127
34200 On ch=1 n=42 v=0
34440 On ch=1 n=42 v=127
34560 On ch=1 n=42 v=0
34560 On ch=1 n=42 v=127
34680 On ch=1 n=42 v=0
34800 On ch=1 n=36 v=127
34800 On ch=1 n=44 v=127
34920 On ch=1 n=36 v=0
34920 On ch=1 n=42 v=127
34920 On ch=1 n=44 v=0
34920 On ch=1 n=47 v=115
35040 On ch=1 n=42 v=0
35040 On ch=1 n=42 v=127
35040 On ch=1 n=47 v=0
35160 On ch=1 n=42 v=0
35160 On ch=1 n=46 v=127
35280 On ch=1 n=36 v=127
35280 On ch=1 n=37 v=115
35280 On ch=1 n=37 v=115
35280 On ch=1 n=46 v=0
35400 On ch=1 n=36 v=0
35400 On ch=1 n=37 v=0
35400 On ch=1 n=37 v=0
35520 On ch=1 n=38 v=127
35520 On ch=1 n=39 v=115
35520 On ch=1 n=58 v=115
35640 On ch=1 n=38 v=0
35640 On ch=1 n=39 v=0
35640 On ch=1 n=58 v=0
35760 On ch=1 n=42 v=127
35760 On ch=1 n=54 v=127
35880 On ch=1 n=42 v=0
35880 On ch=1 n=54 v=0
36000 On ch=1 n=42 v=127
36120 On ch=1 n=42 v=0
36360 On ch=1 n=42 v=127
36480 On ch=1 n=42 v=0
36600 On ch=1 n=42 v=127
36600 On ch=1 n=47 v=115
36720 On ch=1 n=36 v=127
36720 On ch=1 n=42 v=0
36720 On ch=1 n=44 v=127
36720 On ch=1 n=47 v=0
36840 On ch=1 n=36 v=0
36840 On ch=1 n=44 v=0
36960 On ch=1 n=42 v=127
36960 On ch=1 n=53 v=127
37080 On ch=1 n=42 v=0
37080 On ch=1 n=46 v=127
37080 On ch=1 n=53 v=0
37200 On ch=1 n=36 v=127
37200 On ch=1 n=42 v=127
37200 On ch=1 n=46 v=0
37320 On ch=1 n=36 v=0
37320 On ch=1 n=42 v=0
37440 On ch=1 n=38 v=127
37440 On ch=1 n=39 v=115
37560 On ch=1 n=38 v=0
37560 On ch=1 n=39 v=0
37560 On ch=1 n=47 v=115
37680 On ch=1 n=42 v=127
37680 On ch=1 n=47 v=0
37680 On ch=1 n=52 v=127
37800 On ch=1 n=42 v=0
37800 On ch=1 n=52 v=0
37920 On ch=1 n=42 v=127
38040 On ch=1 n=42 v=0
38160 On ch=1 n=38 v=127
38280 On ch=1 n=38 v=0
38280 On ch=1 n=42 v=127
38400 On ch=1 n=42 v=0
38400 On ch=1 n=42 v=127
38400 On ch=1 n=53 v=127
38520 On ch=1 n=42 v=0
38520 On ch=1 n=47 v=115
38520 On ch=1 n=53 v=0
38640 On ch=1 n=44 v=127
38640 On ch=1 n=47 v=0
38760 On ch=1 n=42 v=127
38760 On ch=1 n=44 v=0
38880 On ch=1 n=36 v=127
38880 On ch=1 n=42 v=0
38880 On ch=1 n=42 v=127
39000 On ch=1 n=36 v=0
39000 On ch=1 n=42 v=0
39000 On ch=1 n=46 v=127
39120 On ch=1 n=36 v=127
39120 On ch=1 n=37 v=115
39120 On ch=1 n=37 v=115
39120 On ch=1 n=46 v=0
39240 On ch=1 n=36 v=0
39240 On ch=1 n=37 v=0
39240 On ch=1 n=37 v=0
39360 On ch=1 n=38 v=127
39360 On ch=1 n=39 v=115
39360 On ch=1 n=58 v=115
39480 On ch=1 n=38 v=0
39480 On ch=1 n=39 v=0
39480 On ch=1 n=58 v=0
39600 On ch=1 n=42 v=127
39600 On ch=1 n=54 v=127
39720 On ch=1 n=42 v=0
39720 On ch=1 n=46 v=127
39720 On ch=1 n=54 v=0
39840 On ch=1 n=42 v=127
39840 On ch=1 n=46 v=0
39960 On ch=1 n=42 v=0
40080 On ch=1 n=44 v=127
40200 On ch=1 n=42 v=127
40200 On ch=1 n=44 v=0
40320 On ch=1 n=42 v=0
40440 On ch=1 n=42 v=127
40560 On ch=1 n=36 v=127
40560 On ch=1 n=42 v=0
40560 On ch=1 n=44 v=127
40680 On ch=1 n=36 v=0
40680 On ch=1 n=44 v=0
40680 On ch=1 n=47 v=115
40800 On ch=1 n=42 v=127
40800 On ch=1 n=47 v=0
40800 On ch=1 n=53 v=127
40920 On ch=1 n=42 v=0
40920 On ch=1 n=46 v=127
40920 On ch=1 n=53 v=0
41040 On ch=1 n=36 v=127
41040 On ch=1 n=42 v=127
41040 On ch=1 n=46 v=0
41160 On ch=1 n=36 v=0
41160 On ch=1 n=42 v=0
41280 On ch=1 n=38 v=127
41280 On ch=1 n=39 v=115
41400 On ch=1 n=38 v=0
41400 On ch=1 n=39 v=0
41400 On ch=1 n=42 v=127
41520 On ch=1 n=42 v=0
41520 On ch=1 n=42 v=127
41640 On ch=1 n=42 v=0
41760 On ch=1 n=42 v=127
41880 On ch=1 n=42 v=0
42000 On ch=1 n=42 v=127
42060 On ch=1 n=42 v=0
42060 On ch=1 n=42 v=127
42120 On ch=1 n=42 v=0
42120 On ch=1 n=42 v=127
42180 On ch=1 n=42 v=0
42180 On ch=1 n=42 v=127
42240 On ch=1 n=42 v=0
42240 On ch=1 n=42 v=127
42360 On ch=1 n=42 v=0
42480 On ch=1 n=36 v=127
42480 On ch=1 n=44 v=127
42600 On ch=1 n=36 v=0
42600 On ch=1 n=42 v=127
42600 On ch=1 n=44 v=0
42600 On ch=1 n=47 v=115
42720 On ch=1 n=42 v=0
42720 On ch=1 n=42 v=127
42720 On ch=1 n=47 v=0
42720 On ch=1 n=53 v=127
42840 On ch=1 n=42 v=0
42840 On ch=1 n=53 v=0
42880 On ch=1 n=42 v=127
42960 On ch=1 n=36 v=127
42960 On ch=1 n=37 v=115
42960 On ch=1 n=37 v=115
43000 On ch=1 n=42 v=0
43040 On ch=1 n=42 v=127
43080 On ch=1 n=36 v=0
43080 On ch=1 n=37 v=0
43080 On ch=1 n=37 v=0
43160 On ch=1 n=42 v=0
43200 On ch=1 n=38 v=127
43200 On ch=1 n=39 v=115
43200 On ch=1 n=58 v=115
43320 On ch=1 n=38 v=0
43320 On ch=1 n=39 v=0
43320 On ch=1 n=58 v=0
43440 On ch=1 n=42 v=127
43440 On ch=1 n=54 v=127
43560 On ch=1 n=42 v=0
43560 On ch=1 n=54 v=0
43680 On ch=1 n=42 v=127
43800 On ch=1 n=38 v=127
43800 On ch=1 n=42 v=0
43800 On ch=1 n=42 v=127
43920 On ch=1 n=38 v=0
43920 On ch=1 n=42 v=0
44040 On ch=1 n=42 v=127
44160 On ch=1 n=42 v=0
44280 On ch=1 n=42 v=127
44280 On ch=1 n=47 v=115
44400 On ch=1 n=36 v=127
44400 On ch=1 n=42 v=0
44400 On ch=1 n=44 v=127
44400 On ch=1 n=47 v=0
44520 On ch=1 n=36 v=0
44520 On ch=1 n=44 v=0
44640 On ch=1 n=42 v=127
44760 On ch=1 n=42 v=0
44760 On ch=1 n=46 v=127
44880 On ch=1 n=36 v=127
44880 On ch=1 n=42 v=127
44880 On ch=1 n=46 v=0
45000 On ch=1 n=36 v=0
45000 On ch=1 n=42 v=0
45120 On ch=1 n=38 v=127
45240 Off ch=1 n=38 v=64
45480 On ch=1 n=38 v=127
45600 Off ch=1 n=38 v=64
45840 On ch=1 n=38 v=127
45960 Off ch=1 n=38 v=64
45960 Meta TrkEnd
TrkEnd
MTrk
0 Meta TrkName "Verse"
0 Meta InstrName "Seismic"
46080 On ch=1 n=36 v=127
46080 On ch=1 n=37 v=115
46080 On ch=1 n=37 v=115
46080 On ch=1 n=42 v=127
46080 On ch=1 n=49 v=127
46200 On ch=1 n=36 v=0
46200 On ch=1 n=37 v=0
46200 On ch=1 n=37 v=0
46200 On ch=1 n=42 v=0
46200 On ch=1 n=47 v=115
46200 On ch=1 n=49 v=0
46240 On ch=1 n=42 v=127
46320 On ch=1 n=47 v=0
46360 On ch=1 n=42 v=0
46400 On ch=1 n=42 v=127
46520 On ch=1 n=42 v=0
46560 On ch=1 n=42 v=127
46680 On ch=1 n=42 v=0
46720 On ch=1 n=42 v=127
46800 On ch=1 n=36 v=127
46800 On ch=1 n=37 v=115
46800 On ch=1 n=37 v=115
46840 On ch=1 n=42 v=0
46880 On ch=1 n=42 v=127
46920 On ch=1 n=36 v=0
46920 On ch=1 n=37 v=0
46920 On ch=1 n=37 v=0
47000 On ch=1 n=42 v=0
47040 On ch=1 n=38 v=127
47040 On ch=1 n=39 v=115
47040 On ch=1 n=58 v=115
47160 On ch=1 n=38 v=0
47160 On ch=1 n=39 v=0
47160 On ch=1 n=42 v=127
47160 On ch=1 n=58 v=0
47280 On ch=1 n=42 v=0
47280 On ch=1 n=42 v=127
47280 On ch=1 n=54 v=127
47400 On ch=1 n=42 v=0
47400 On ch=1 n=46 v=127
47400 On ch=1 n=54 v=0
47520 On ch=1 n=42 v=127
47520 On ch=1 n=46 v=0
47640 On ch=1 n=42 v=0
47760 On ch=1 n=36 v=127
47880 On ch=1 n=36 v=0
47880 On ch=1 n=42 v=127
48000 On ch=1 n=42 v=0
48120 On ch=1 n=42 v=127
48120 On ch=1 n=47 v=115
48240 On ch=1 n=36 v=127
48240 On ch=1 n=42 v=0
48240 On ch=1 n=44 v=127
48240 On ch=1 n=47 v=0
48360 On ch=1 n=36 v=0
48360 On ch=1 n=44 v=0
48360 On ch=1 n=47 v=115
48480 On ch=1 n=42 v=127
48480 On ch=1 n=47 v=0
48480 On ch=1 n=53 v=127
48600 On ch=1 n=42 v=0
48600 On ch=1 n=46 v=127
48600 On ch=1 n=53 v=0
48720 On ch=1 n=36 v=127
48720 On ch=1 n=42 v=127
48720 On ch=1 n=46 v=0
48840 On ch=1 n=36 v=0
48840 On ch=1 n=42 v=0
48960 On ch=1 n=38 v=127
48960 On ch=1 n=39 v=115
49080 On ch=1 n=38 v=0
49080 On ch=1 n=39 v=0
49200 On ch=1 n=42 v=127
49320 On ch=1 n=42 v=0
49440 On ch=1 n=42 v=127
49560 On ch=1 n=42 v=0
49800 On ch=1 n=42 v=127
49920 On ch=1 n=42 v=0
49920 On ch=1 n=42 v=127
50040 On ch=1 n=42 v=0
50160 On ch=1 n=36 v=127
50160 On ch=1 n=44 v=127
50280 On ch=1 n=36 v=0
50280 On ch=1 n=42 v=127
50280 On ch=1 n=44 v=0
50280 On ch=1 n=47 v=115
50400 On ch=1 n=42 v=0
50400 On ch=1 n=42 v=127
50400 On ch=1 n=47 v=0
50520 On ch=1 n=42 v=0
50520 On ch=1 n=46 v=127
50640 On ch=1 n=36 v=127
50640 On ch=1 n=37 v=115
50640 On ch=1 n=37 v=115
50640 On ch=1 n=46 v=0
50760 On ch=1 n=36 v=0
50760 On ch=1 n=37 v=0
50760 On ch=1 n=37 v=0
50880 On ch=1 n=38 v=127
50880 On ch=1 n=39 v=115
50880 On ch=1 n=58 v=115
51000 On ch=1 n=38 v=0
51000 On ch=1 n=39 v=0
51000 On ch=1 n=58 v=0
51120 On ch=1 n=42 v=127
51120 On ch=1 n=54 v=127
51240 On ch=1 n=42 v=0
51240 On ch=1 n=54 v=0
51360 On ch=1 n=42 v=127
51480 On ch=1 n=42 v=0
51720 On ch=1 n=42 v=127
51840 On ch=1 n=42 v=0
51960 On ch=1 n=42 v=127
51960 On ch=1 n=47 v=115
52080 On ch=1 n=36 v=127
52080 On ch=1 n=42 v=0
52080 On ch=1 n=44 v=127
52080 On ch=1 n=47 v=0
52200 On ch=1 n=36 v=0
52200 On ch=1 n=44 v=0
52320 On ch=1 n=42 v=127
52320 On ch=1 n=53 v=127
52440 On ch=1 n=42 v=0
52440 On ch=1 n=46 v=127
52440 On ch=1 n=53 v=0
52560 On ch=1 n=36 v=127
52560 On ch=1 n=42 v=127
52560 On ch=1 n=46 v=0
52680 On ch=1 n=36 v=0
52680 On ch=1 n=42 v=0
52800 On ch=1 n=38 v=127
52800 On ch=1 n=39 v=115
52920 On ch=1 n=38 v=0
52920 On ch=1 n=39 v=0
52920 On ch=1 n=47 v=115
53040 On ch=1 n=42 v=127
53040 On ch=1 n=47 v=0
53040 On ch=1 n=52 v=127
53160 On ch=1 n=42 v=0
53160 On ch=1 n=52 v=0
53280 On ch=1 n=42 v=127
53400 On ch=1 n=42 v=0
53520 On ch=1 n=38 v=127
53640 On ch=1 n=38 v=0
53640 On ch=1 n=42 v=127
53760 On ch=1 n=42 v=0
53760 On ch=1 n=42 v=127
53760 On ch=1 n=53 v=127
53880 On ch=1 n=42 v=0
53880 On ch=1 n=47 v=115
53880 On ch=1 n=53 v=0
54000 On ch=1 n=44 v=127
54000 On ch=1 n=47 v=0
54120 On ch=1 n=42 v=127
54120 On ch=1 n=44 v=0
54240 On ch=1 n=36 v=127
54240 On ch=1 n=42 v=0
54240 On ch=1 n=42 v=127
54360 On ch=1 n=36 v=0
54360 On ch=1 n=42 v=0
54360 On ch=1 n=46 v=127
54480 On ch=1 n=36 v=127
54480 On ch=1 n=37 v=115
54480 On ch=1 n=37 v=115
54480 On ch=1 n=46 v=0
54600 On ch=1 n=36 v=0
54600 On ch=1 n=37 v=0
54600 On ch=1 n=37 v=0
54720 On ch=1 n=38 v=127
54720 On ch=1 n=39 v=115
54720 On ch=1 n=58 v=115
54840 On ch=1 n=38 v=0
54840 On ch=1 n=39 v=0
54840 On ch=1 n=58 v=0
54960 On ch=1 n=42 v=127
54960 On ch=1 n=54 v=127
55080 On ch=1 n=42 v=0
55080 On ch=1 n=46 v=127
55080 On ch=1 n=54 v=0
55200 On ch=1 n=42 v=127
55200 On ch=1 n=46 v=0
55320 On ch=1 n=42 v=0
55440 On ch=1 n=44 v=127
55560 On ch=1 n=42 v=127
55560 On ch=1 n=44 v=0
55680 On ch=1 n=42 v=0
55800 On ch=1 n=42 v=127
55920 On ch=1 n=36 v=127
55920 On ch=1 n=42 v=0
55920 On ch=1 n=44 v=127
56040 On ch=1 n=36 v=0
56040 On ch=1 n=44 v=0
56040 On ch=1 n=47 v=115
56160 On ch=1 n=42 v=127
56160 On ch=1 n=47 v=0
56160 On ch=1 n=53 v=127
56280 On ch=1 n=42 v=0
56280 On ch=1 n=46 v=127
56280 On ch=1 n=53 v=0
56400 On ch=1 n=36 v=127
56400 On ch=1 n=42 v=127
56400 On ch=1 n=46 v=0
56520 On ch=1 n=36 v=0
56520 On ch=1 n=42 v=0
56640 On ch=1 n=38 v=127
56640 On ch=1 n=39 v=115
56760 On ch=1 n=38 v=0
56760 On ch=1 n=39 v=0
56760 On ch=1 n=42 v=127
56880 On ch=1 n=42 v=0
56880 On ch=1 n=42 v=127
57000 On ch=1 n=42 v=0
57120 On ch=1 n=42 v=127
57240 On ch=1 n=42 v=0
57360 On ch=1 n=42 v=127
57420 On ch=1 n=42 v=0
57420 On ch=1 n=42 v=127
57480 On ch=1 n=42 v=0
57480 On ch=1 n=42 v=127
57540 On ch=1 n=42 v=0
57540 On ch=1 n=42 v=127
57600 On ch=1 n=42 v=0
57600 On ch=1 n=42 v=127
57720 On ch=1 n=42 v=0
57840 On ch=1 n=36 v=127
57840 On ch=1 n=44 v=127
57960 On ch=1 n=36 v=0
57960 On ch=1 n=42 v=127
57960 On ch=1 n=44 v=0
57960 On ch=1 n=47 v=115
58080 On ch=1 n=42 v=0
58080 On ch=1 n=42 v=127
58080 On ch=1 n=47 v=0
58080 On ch=1 n=53 v=127
58200 On ch=1 n=42 v=0
58200 On ch=1 n=53 v=0
58240 On ch=1 n=42 v=127
58320 On ch=1 n=36 v=127
58320 On ch=1 n=37 v=115
58320 On ch=1 n=37 v=115
58360 On ch=1 n=42 v=0
58400 On ch=1 n=42 v=127
58440 On ch=1 n=36 v=0
58440 On ch=1 n=37 v=0
58440 On ch=1 n=37 v=0
58520 On ch=1 n=42 v=0
58560 On ch=1 n=38 v=127
58560 On ch=1 n=39 v=115
58560 On ch=1 n=58 v=115
58680 On ch=1 n=38 v=0
58680 On ch=1 n=39 v=0
58680 On ch=1 n=58 v=0
58800 On ch=1 n=42 v=127
58800 On ch=1 n=54 v=127
58920 On ch=1 n=42 v=0
58920 On ch=1 n=54 v=0
59040 On ch=1 n=42 v=127
59160 On ch=1 n=38 v=127
59160 On ch=1 n=42 v=0
59160 On ch=1 n=42 v=127
59280 On ch=1 n=38 v=0
59280 On ch=1 n=42 v=0
59400 On ch=1 n=42 v=127
59520 On ch=1 n=42 v=0
59640 On ch=1 n=42 v=127
59640 On ch=1 n=47 v=115
59760 On ch=1 n=36 v=127
59760 On ch=1 n=42 v=0
59760 On ch=1 n=44 v=127
59760 On ch=1 n=47 v=0
59880 On ch=1 n=36 v=0
59880 On ch=1 n=44 v=0
60000 On ch=1 n=42 v=127
60120 On ch=1 n=42 v=0
60120 On ch=1 n=46 v=127
60240 On ch=1 n=36 v=127
60240 On ch=1 n=42 v=127
60240 On ch=1 n=46 v=0
60360 On ch=1 n=36 v=0
60360 On ch=1 n=42 v=0
60480 On ch=1 n=38 v=127
60600 Off ch=1 n=38 v=64
60840 On ch=1 n=38 v=127
60960 Off ch=1 n=38 v=64
61200 On ch=1 n=38 v=127
61320 Off ch=1 n=38 v=64
61320 Meta TrkEnd
TrkEnd
MTrk
0 Meta TrkName "Bridge"
0 Meta InstrName "Seismic"
61440 On ch=1 n=36 v=127
61440 On ch=1 n=37 v=115
61440 On ch=1 n=37 v=115
61440 On ch=1 n=42 v=127
61440 On ch=1 n=49 v=127
61560 On ch=1 n=36 v=0
61560 On ch=1 n=37 v=0
61560 On ch=1 n=37 v=0
61560 On ch=1 n=42 v=0
61560 On ch=1 n=47 v=115
61560 On ch=1 n=49 v=0
61600 On ch=1 n=42 v=127
61680 On ch=1 n=47 v=0
61720 On ch=1 n=42 v=0
61760 On ch=1 n=42 v=127
61880 On ch=1 n=42 v=0
61920 On ch=1 n=42 v=127
62040 On ch=1 n=42 v=0
62080 On ch=1 n=42 v=127
62160 On ch=1 n=36 v=127
62160 On ch=1 n=37 v=115
62160 On ch=1 n=37 v=115
62200 On ch=1 n=42 v=0
62240 On ch=1 n=42 v=127
62280 On ch=1 n=36 v=0
62280 On ch=1 n=37 v=0
62280 On ch=1 n=37 v=0
62360 On ch=1 n=42 v=0
62400 On ch=1 n=38 v=127
62400 On ch=1 n=39 v=115
62400 On ch=1 n=58 v=115
62520 On ch=1 n=38 v=0
62520 On ch=1 n=39 v=0
62520 On ch=1 n=42 v=127
62520 On ch=1 n=58 v=0
62640 On ch=1 n=42 v=0
62640 On ch=1 n=42 v=127
62640 On ch=1 n=54 v=127
62760 On ch=1 n=42 v=0
62760 On ch=1 n=46 v=127
62760 On ch=1 n=54 v=0
62880 On ch=1 n=42 v=127
62880 On ch=1 n=46 v=0
63000 On ch=1 n=42 v=0
63120 On ch=1 n=36 v=127
63240 On ch=1 n=36 v=0
63240 On ch=1 n=42 v=127
63360 On ch=1 n=42 v=0
63480 On ch=1 n=42 v=127
63480 On ch=1 n=47 v=115
63600 On ch=1 n=36 v=127
63600 On ch=1 n=42 v=0
63600 On ch=1 n=44 v=127
63600 On ch=1 n=47 v=0
63720 On ch=1 n=36 v=0
63720 On ch=1 n=44 v=0
63720 On ch=1 n=47 v=115
63840 On ch=1 n=42 v=127
63840 On ch=1 n=47 v=0
63840 On ch=1 n=53 v=127
63960 On ch=1 n=42 v=0
63960 On ch=1 n=46 v=127
63960 On ch=1 n=53 v=0
64080 On ch=1 n=36 v=127
64080 On ch=1 n=42 v=127
64080 On ch=1 n=46 v=0
64200 On ch=1 n=36 v=0
64200 On ch=1 n=42 v=0
64320 On ch=1 n=38 v=127
64320 On ch=1 n=39 v=115
64440 On ch=1 n=38 v=0
64440 On ch=1 n=39 v=0
64560 On ch=1 n=42 v=127
64680 On ch=1 n=42 v=0
64800 On ch=1 n=42 v=127
64920 On ch=1 n=42 v=0
65160 On ch=1 n=42 v=127
65280 On ch=1 n=42 v=0
65280 On ch=1 n=42 v=127
65400 On ch=1 n=42 v=0
65520 On ch=1 n=36 v=127
65520 On ch=1 n=44 v=127
65640 On ch=1 n=36 v=0
65640 On ch=1 n=42 v=127
65640 On ch=1 n=44 v=0
65640 On ch=1 n=47 v=115
65760 On ch=1 n=42 v=0
65760 On ch=1 n=42 v=127
65760 On ch=1 n=47 v=0
65880 On ch=1 n=42 v=0
65880 On ch=1 n=46 v=127
66000 On ch=1 n=36 v=127
66000 On ch=1 n=37 v=115
66000 On ch=1 n=37 v=115
66000 On ch=1 n=46 v=0
66120 On ch=1 n=36 v=0
66120 On ch=1 n=37 v=0
66120 On ch=1 n=37 v=0
66240 On ch=1 n=38 v=127
66240 On ch=1 n=39 v=115
66240 On ch=1 n=58 v=115
66360 On ch=1 n=38 v=0
66360 On ch=1 n=39 v=0
66360 On ch=1 n=58 v=0
66480 On ch=1 n=42 v=127
66480 On ch=1 n=54 v=127
66600 On ch=1 n=42 v=0
66600 On ch=1 n=54 v=0
66720 On ch=1 n=42 v=127
66840 On ch=1 n=42 v=0
67080 On ch=1 n=42 v=127
67200 On ch=1 n=42 v=0
67320 On ch=1 n=42 v=127
67320 On ch=1 n=47 v=115
67440 On ch=1 n=36 v=127
67440 On ch=1 n=42 v=0
67440 On ch=1 n=44 v=127
67440 On ch=1 n=47 v=0
67560 On ch=1 n=36 v=0
67560 On ch=1 n=44 v=0
67680 On ch=1 n=42 v=127
67680 On ch=1 n=53 v=127
67800 On ch=1 n=42 v=0
67800 On ch=1 n=46 v=127
67800 On ch=1 n=53 v=0
67920 On ch=1 n=36 v=127
67920 On ch=1 n=42 v=127
67920 On ch=1 n=46 v=0
68040 On ch=1 n=36 v=0
68040 On ch=1 n=42 v=0
68160 On ch=1 n=38 v=127
68160 On ch=1 n=39 v=115
68280 On ch=1 n=38 v=0
68280 On ch=1 n=39 v=0
68280 On ch=1 n=47 v=115
68400 On ch=1 n=42 v=127
68400 On ch=1 n=47 v=0
68400 On ch=1 n=52 v=127
68520 On ch=1 n=42 v=0
68520 On ch=1 n=52 v=0
68640 On ch=1 n=42 v=127
68760 On ch=1 n=42 v=0
68880 On ch=1 n=38 v=127
69000 On ch=1 n=38 v=0
69000 On ch=1 n=42 v=127
69120 On ch=1 n=42 v=0
69120 On ch=1 n=42 v=127
69120 On ch=1 n=53 v=127
69240 On ch=1 n=42 v=0
69240 On ch=1 n=47 v=115
69240 On ch=1 n=53 v=0
69360 On ch=1 n=44 v=127
69360 On ch=1 n=47 v=0
69480 On ch=1 n=42 v=127
69480 On ch=1 n=44 v=0
69600 On ch=1 n=36 v=127
69600 On ch=1 n=42 v=0
69600 On ch=1 n=42 v=127
69720 On ch=1 n=36 v=0
69720 On ch=1 n=42 v=0
69720 On ch=1 n=46 v=127
69840 On ch=1 n=36 v=127
69840 On ch=1 n=37 v=115
69840 On ch=1 n=37 v=115
69840 On ch=1 n=46 v=0
69960 On ch=1 n=36 v=0
69960 On ch=1 n=37 v=0
69960 On ch=1 n=37 v=0
70080 On ch=1 n=38 v=127
70080 On ch=1 n=39 v=115
70080 On ch=1 n=58 v=115
70200 On ch=1 n=38 v=0
70200 On ch=1 n=39 v=0
70200 On ch=1 n=58 v=0
70320 On ch=1 n=42 v=127
70320 On ch=1 n=54 v=127
70440 On ch=1 n=42 v=0
70440 On ch=1 n=46 v=127
70440 On ch=1 n=54 v=0
70560 On ch=1 n=42 v=127
70560 On ch=1 n=46 v=0
70680 On ch=1 n=42 v=0
70800 On ch=1 n=44 v=127
70920 On ch=1 n=42 v=127
70920 On ch=1 n=44 v=0
71040 On ch=1 n=42 v=0
71160 On ch=1 n=42 v=127
71280 On ch=1 n=36 v=127
71280 On ch=1 n=42 v=0
71280 On ch=1 n=44 v=127
71400 On ch=1 n=36 v=0
71400 On ch=1 n=44 v=0
71400 On ch=1 n=47 v=115
71520 On ch=1 n=42 v=127
71520 On ch=1 n=47 v=0
71520 On ch=1 n=53 v=127
71640 On ch=1 n=42 v=0
71640 On ch=1 n=46 v=127
71640 On ch=1 n=53 v=0
71760 On ch=1 n=36 v=127
71760 On ch=1 n=42 v=127
71760 On ch=1 n=46 v=0
71880 On ch=1 n=36 v=0
71880 On ch=1 n=42 v=0
72000 On ch=1 n=38 v=127
72000 On ch=1 n=39 v=115
72120 On ch=1 n=38 v=0
72120 On ch=1 n=39 v=0
72120 On ch=1 n=42 v=127
72240 On ch=1 n=42 v=0
72240 On ch=1 n=42 v=127
72360 On ch=1 n=42 v=0
72480 On ch=1 n=42 v=127
72600 On ch=1 n=42 v=0
72720 On ch=1 n=42 v=127
72780 On ch=1 n=42 v=0
72780 On ch=1 n=42 v=127
72840 On ch=1 n=42 v=0
72840 On ch=1 n=42 v=127
72900 On ch=1 n=42 v=0
72900 On ch=1 n=42 v=127
72960 On ch=1 n=42 v=0
72960 On ch=1 n=42 v=127
73080 On ch=1 n=42 v=0
73200 On ch=1 n=36 v=127
73200 On ch=1 n=44 v=127
73320 On ch=1 n=36 v=0
73320 On ch=1 n=42 v=127
73320 On ch=1 n=44 v=0
73320 On ch=1 n=47 v=115
73440 On ch=1 n=42 v=0
73440 On ch=1 n=42 v=127
73440 On ch=1 n=47 v=0
73440 On ch=1 n=53 v=127
73560 On ch=1 n=42 v=0
73560 On ch=1 n=53 v=0
73600 On ch=1 n=42 v=127
73680 On ch=1 n=36 v=127
73680 On ch=1 n=37 v=115
73680 On ch=1 n=37 v=115
73720 On ch=1 n=42 v=0
73760 On ch=1 n=42 v=127
73800 On ch=1 n=36 v=0
73800 On ch=1 n=37 v=0
73800 On ch=1 n=37 v=0
73880 On ch=1 n=42 v=0
73920 On ch=1 n=38 v=127
73920 On ch=1 n=39 v=115
73920 On ch=1 n=58 v=115
74040 On ch=1 n=38 v=0
74040 On ch=1 n=39 v=0
74040 On ch=1 n=58 v=0
74160 On ch=1 n=42 v=127
74160 On ch=1 n=54 v=127
74280 On ch=1 n=42 v=0
74280 On ch=1 n=54 v=0
74400 On ch=1 n=42 v=127
74520 On ch=1 n=38 v=127
74520 On ch=1 n=42 v=0
74520 On ch=1 n=42 v=127
74640 On ch=1 n=38 v=0
74640 On ch=1 n=42 v=0
74760 On ch=1 n=42 v=127
74880 On ch=1 n=42 v=0
75000 On ch=1 n=42 v=127
75000 On ch=1 n=47 v=115
75120 On ch=1 n=36 v=127
75120 On ch=1 n=42 v=0
75120 On ch=1 n=44 v=127
75120 On ch=1 n=47 v=0
75240 On ch=1 n=36 v=0
75240 On ch=1 n=44 v=0
75360 On ch=1 n=42 v=127
75480 On ch=1 n=42 v=0
75480 On ch=1 n=46 v=127
75600 On ch=1 n=36 v=127
75600 On ch=1 n=42 v=127
75600 On ch=1 n=46 v=0
75720 On ch=1 n=36 v=0
75720 On ch=1 n=42 v=0
75840 On ch=1 n=38 v=127
75960 Off ch=1 n=38 v=64
76200 On ch=1 n=38 v=127
76320 Off ch=1 n=38 v=64
76560 On ch=1 n=38 v=127
76680 Off ch=1 n=38 v=64
76680 Meta TrkEnd
TrkEnd
MTrk
0 Meta TrkName "Chorus"
0 Meta InstrName "Seismic"
76800 On ch=1 n=36 v=127
76800 On ch=1 n=37 v=115
76800 On ch=1 n=37 v=115
76800 On ch=1 n=42 v=127
76800 On ch=1 n=49 v=127
76920 On ch=1 n=36 v=0
76920 On ch=1 n=37 v=0
76920 On ch=1 n=37 v=0
76920 On ch=1 n=42 v=0
76920 On ch=1 n=47 v=115
76920 On ch=1 n=49 v=0
76960 On ch=1 n=42 v=127
77040 On ch=1 n=47 v=0
77080 On ch=1 n=42 v=0
77120 On ch=1 n=42 v=127
77240 On ch=1 n=42 v=0
77280 On ch=1 n=42 v=127
77400 On ch=1 n=42 v=0
77440 On ch=1 n=42 v=127
77520 On ch=1 n=36 v=127
77520 On ch=1 n=37 v=115
77520 On ch=1 n=37 v=115
77560 On ch=1 n=42 v=0
77600 On ch=1 n=42 v=127
77640 On ch=1 n=36 v=0
77640 On ch=1 n=37 v=0
77640 On ch=1 n=37 v=0
77720 On ch=1 n=42 v=0
77760 On ch=1 n=38 v=127
77760 On ch=1 n=39 v=115
77760 On ch=1 n=58 v=115
77880 On ch=1 n=38 v=0
77880 On ch=1 n=39 v=0
77880 On ch=1 n=42 v=127
77880 On ch=1 n=58 v=0
78000 On ch=1 n=42 v=0
78000 On ch=1 n=42 v=127
78000 On ch=1 n=54 v=127
78120 On ch=1 n=42 v=0
78120 On ch=1 n=46 v=127
78120 On ch=1 n=54 v=0
78240 On ch=1 n=42 v=127
78240 On ch=1 n=46 v=0
78360 On ch=1 n=42 v=0
78480 On ch=1 n=36 v=127
78600 On ch=1 n=36 v=0
78600 On ch=1 n=42 v=127
78720 On ch=1 n=42 v=0
78840 On ch=1 n=42 v=127
78840 On ch=1 n=47 v=115
78960 On ch=1 n=36 v=127
78960 On ch=1 n=42 v=0
78960 On ch=1 n=44 v=127
78960 On ch=1 n=47 v=0
79080 On ch=1 n=36 v=0
79080 On ch=1 n=44 v=0
79080 On ch=1 n=47 v=115
79200 On ch=1 n=42 v=127
79200 On ch=1 n=47 v=0
79200 On ch=1 n=53 v=127
79320 On ch=1 n=42 v=0
79320 On ch=1 n=46 v=127
79320 On ch=1 n=53 v=0
79440 On ch=1 n=36 v=127
79440 On ch=1 n=42 v=127
79440 On ch=1 n=46 v=0
79560 On ch=1 n=36 v=0
79560 On ch=1 n=42 v=0
79680 On ch=1 n=38 v=127
79680 On ch=1 n=39 v=115
79800 On ch=1 n=38 v=0
79800 On ch=1 n=39 v=0
79920 On ch=1 n=42 v=127
80040 On ch=1 n=42 v=0
80160 On ch=1 n=42 v=127
80280 On ch=1 n=42 v=0
80520 On ch=1 n=42 v=127
80640 On ch=1 n=42 v=0
80640 On ch=1 n=42 v=127
80760 On ch=1 n=42 v=0
80880 On ch=1 n=36 v=127
80880 On ch=1 n=44 v=127
81000 On ch=1 n=36 v=0
81000 On ch=1 n=42 v=127
81000 On ch=1 n=44 v=0
81000 On ch=1 n=47 v=115
81120 On ch=1 n=42 v=0
81120 On ch=1 n=42 v=127
81120 On ch=1 n=47 v=0
81240 On ch=1 n=42 v=0
81240 On ch=1 n=46 v=127
81360 On ch=1 n=36 v=127
81360 On ch=1 n=37 v=115
81360 On ch=1 n=37 v=115
81360 On ch=1 n=46 v=0
81480 On ch=1 n=36 v=0
81480 On ch=1 n=37 v=0
81480 On ch=1 n=37 v=0
81600 On ch=1 n=38 v=127
81600 On ch=1 n=39 v=115
81600 On ch=1 n=58 v=115
81720 On ch=1 n=38 v=0
81720 On ch=1 n=39 v=0
81720 On ch=1 n=58 v=0
81840 On ch=1 n=42 v=127
81840 On ch=1 n=54 v=127
81960 On ch=1 n=42 v=0
81960 On ch=1 n=54 v=0
82080 On ch=1 n=42 v=127
82200 On ch=1 n=42 v=0
82440 On ch=1 n=42 v=127
82560 On ch=1 n=42 v=0
82680 On ch=1 n=42 v=127
82680 On ch=1 n=47 v=115
82800 On ch=1 n=36 v=127
82800 On ch=1 n=42 v=0
82800 On ch=1 n=44 v=127
82800 On ch=1 n=47 v=0
82920 On ch=1 n=36 v=0
82920 On ch=1 n=44 v=0
83040 On ch=1 n=42 v=127
83040 On ch=1 n=53 v=127
83160 On ch=1 n=42 v=0
83160 On ch=1 n=46 v=127
83160 On ch=1 n=53 v=0
83280 On ch=1 n=36 v=127
83280 On ch=1 n=42 v=127
83280 On ch=1 n=46 v=0
83400 On ch=1 n=36 v=0
83400 On ch=1 n=42 v=0
83520 On ch=1 n=38 v=127
83520 On ch=1 n=39 v=115
83640 On ch=1 n=38 v=0
83640 On ch=1 n=39 v=0
83640 On ch=1 n=47 v=115
83760 On ch=1 n=42 v=127
83760 On ch=1 n=47 v=0
83760 On ch=1 n=52 v=127
83880 On ch=1 n=42 v=0
83880 On ch=1 n=52 v=0
84000 On ch=1 n=42 v=127
84120 On ch=1 n=42 v=0
84240 On ch=1 n=38 v=127
84360 On ch=1 n=38 v=0
84360 On ch=1 n=42 v=127
84480 On ch=1 n=42 v=0
84480 On ch=1 n=42 v=127
84480 On ch=1 n=53 v=127
84600 On ch=1 n=42 v=0
84600 On ch=1 n=47 v=115
84600 On ch=1 n=53 v=0
84720 On ch=1 n=44 v=127
84720 On ch=1 n=47 v=0
84840 On ch=1 n=42 v=127
84840 On ch=1 n=44 v=0
84960 On ch=1 n=36 v=127
84960 On ch=1 n=42 v=0
84960 On ch=1 n=42 v=127
85080 On ch=1 n=36 v=0
85080 On ch=1 n=42 v=0
85080 On ch=1 n=46 v=127
85200 On ch=1 n=36 v=127
85200 On ch=1 n=37 v=115
85200 On ch=1 n=37 v=115
85200 On ch=1 n=46 v=0
85320 On ch=1 n=36 v=0
85320 On ch=1 n=37 v=0
85320 On ch=1 n=37 v=0
85440 On ch=1 n=38 v=127
85440 On ch=1 n=39 v=115
85440 On ch=1 n=58 v=115
85560 On ch=1 n=38 v=0
85560 On ch=1 n=39 v=0
85560 On ch=1 n=58 v=0
85680 On ch=1 n=42 v=127
85680 On ch=1 n=54 v=127
85800 On ch=1 n=42 v=0
85800 On ch=1 n=46 v=127
85800 On ch=1 n=54 v=0
85920 On ch=1 n=42 v=127
85920 On ch=1 n=46 v=0
86040 On ch=1 n=42 v=0
86160 On ch=1 n=44 v=127
86280 On ch=1 n=42 v=127
86280 On ch=1 n=44 v=0
86400 On ch=1 n=42 v=0
86520 On ch=1 n=42 v=127
86640 On ch=1 n=36 v=127
86640 On ch=1 n=42 v=0
86640 On ch=1 n=44 v=127
86760 On ch=1 n=36 v=0
86760 On ch=1 n=44 v=0
86760 On ch=1 n=47 v=115
86880 On ch=1 n=42 v=127
86880 On ch=1 n=47 v=0
86880 On ch=1 n=53 v=127
87000 On ch=1 n=42 v=0
87000 On ch=1 n=46 v=127
87000 On ch=1 n=53 v=0
87120 On ch=1 n=36 v=127
87120 On ch=1 n=42 v=127
87120 On ch=1 n=46 v=0
87240 On ch=1 n=36 v=0
87240 On ch=1 n=42 v=0
87360 On ch=1 n=38 v=127
87360 On ch=1 n=39 v=115
87480 On ch=1 n=38 v=0
87480 On ch=1 n=39 v=0
87480 On ch=1 n=42 v=127
87600 On ch=1 n=42 v=0
87600 On ch=1 n=42 v=127
87720 On ch=1 n=42 v=0
87840 On ch=1 n=42 v=127
87960 On ch=1 n=42 v=0
88080 On ch=1 n=42 v=127
88140 On ch=1 n=42 v=0
88140 On ch=1 n=42 v=127
88200 On ch=1 n=42 v=0
88200 On ch=1 n=42 v=127
88260 On ch=1 n=42 v=0
88260 On ch=1 n=42 v=127
88320 On ch=1 n=42 v=0
88320 On ch=1 n=42 v=127
88440 On ch=1 n=42 v=0
88560 On ch=1 n=36 v=127
88560 On ch=1 n=44 v=127
88680 On ch=1 n=36 v=0
88680 On ch=1 n=42 v=127
88680 On ch=1 n=44 v=0
88680 On ch=1 n=47 v=115
88800 On ch=1 n=42 v=0
88800 On ch=1 n=42 v=127
88800 On ch=1 n=47 v=0
88800 On ch=1 n=53 v=127
88920 On ch=1 n=42 v=0
88920 On ch=1 n=53 v=0
88960 On ch=1 n=42 v=127
89040 On ch=1 n=36 v=127
89040 On ch=1 n=37 v=115
89040 On ch=1 n=37 v=115
89080 On ch=1 n=42 v=0
89120 On ch=1 n=42 v=127
89160 On ch=1 n=36 v=0
89160 On ch=1 n=37 v=0
89160 On ch=1 n=37 v=0
89240 On ch=1 n=42 v=0
89280 On ch=1 n=38 v=127
89280 On ch=1 n=39 v=115
89280 On ch=1 n=58 v=115
89400 On ch=1 n=38 v=0
89400 On ch=1 n=39 v=0
89400 On ch=1 n=58 v=0
89520 On ch=1 n=42 v=127
89520 On ch=1 n=54 v=127
89640 On ch=1 n=42 v=0
89640 On ch=1 n=54 v=0
89760 On ch=1 n=42 v=127
89880 On ch=1 n=38 v=127
89880 On ch=1 n=42 v=0
89880 On ch=1 n=42 v=127
90000 On ch=1 n=38 v=0
90000 On ch=1 n=42 v=0
90120 On ch=1 n=42 v=127
90240 On ch=1 n=42 v=0
90360 On ch=1 n=42 v=127
90360 On ch=1 n=47 v=115
90480 On ch=1 n=36 v=127
90480 On ch=1 n=42 v=0
90480 On ch=1 n=44 v=127
90480 On ch=1 n=47 v=0
90600 On ch=1 n=36 v=0
90600 On ch=1 n=44 v=0
90720 On ch=1 n=42 v=127
90840 On ch=1 n=42 v=0
90840 On ch=1 n=46 v=127
90960 On ch=1 n=36 v=127
90960 On ch=1 n=42 v=127
90960 On ch=1 n=46 v=0
91080 On ch=1 n=36 v=0
91080 On ch=1 n=42 v=0
91200 On ch=1 n=38 v=127
91320 Off ch=1 n=38 v=64
91560 On ch=1 n=38 v=127
91680 Off ch=1 n=38 v=64
91920 On ch=1 n=38 v=127
92040 Off ch=1 n=38 v=64
92040 Meta TrkEnd
TrkEnd
MTrk
0 Meta TrkName "Outro"
0 Meta InstrName "Seismic"
92160 On ch=1 n=36 v=127
92160 On ch=1 n=37 v=115
92160 On ch=1 n=37 v=115
92160 On ch=1 n=42 v=127
92160 On ch=1 n=49 v=127
92280 On ch=1 n=36 v=0
92280 On ch=1 n=37 v=0
92280 On ch=1 n=37 v=0
92280 On ch=1 n=42 v=0
92280 On ch=1 n=47 v=115
92280 On ch=1 n=49 v=0
92320 On ch=1 n=42 v=127
92400 On ch=1 n=47 v=0
92440 On ch=1 n=42 v=0
92480 On ch=1 n=42 v=127
92600 On ch=1 n=42 v=0
92640 On ch=1 n=42 v=127
92760 On ch=1 n=42 v=0
92800 On ch=1 n=42 v=127
92880 On ch=1 n=36 v=127
92880 On ch=1 n=37 v=115
92880 On ch=1 n=37 v=115
92920 On ch=1 n=42 v=0
92960 On ch=1 n=42 v=127
93000 On ch=1 n=36 v=0
93000 On ch=1 n=37 v=0
93000 On ch=1 n=37 v=0
93080 On ch=1 n=42 v=0
93120 On ch=1 n=38 v=127
93120 On ch=1 n=39 v=115
93120 On ch=1 n=58 v=115
93240 On ch=1 n=38 v=0
93240 On ch=1 n=39 v=0
93240 On ch=1 n=42 v=127
93240 On ch=1 n=58 v=0
93360 On ch=1 n=42 v=0
93360 On ch=1 n=42 v=127
93360 On ch=1 n=54 v=127
93480 On ch=1 n=42 v=0
93480 On ch=1 n=46 v=127
93480 On ch=1 n=54 v=0
93600 On ch=1 n=42 v=127
93600 On ch=1 n=46 v=0
93720 On ch=1 n=42 v=0
93840 On ch=1 n=36 v=127
93960 On ch=1 n=36 v=0
93960 On ch=1 n=42 v=127
94080 On ch=1 n=42 v=0
94200 On ch=1 n=42 v=127
94200 On ch=1 n=47 v=115
94320 On ch=1 n=36 v=127
94320 On ch=1 n=42 v=0
94320 On ch=1 n=44 v=127
94320 On ch=1 n=47 v=0
94440 On ch=1 n=36 v=0
94440 On ch=1 n=44 v=0
94440 On ch=1 n=47 v=115
94560 On ch=1 n=42 v=127
94560 On ch=1 n=47 v=0
94560 On ch=1 n=53 v=127
94680 On ch=1 n=42 v=0
94680 On ch=1 n=46 v=127
94680 On ch=1 n=53 v=0
94800 On ch=1 n=36 v=127
94800 On ch=1 n=42 v=127
94800 On ch=1 n=46 v=0
94920 On ch=1 n=36 v=0
94920 On ch=1 n=42 v=0
95040 On ch=1 n=38 v=127
95040 On ch=1 n=39 v=115
95160 On ch=1 n=38 v=0
95160 On ch=1 n=39 v=0
95280 On ch=1 n=42 v=127
95400 On ch=1 n=42 v=0
95520 On ch=1 n=42 v=127
95640 On ch=1 n=42 v=0
95880 On ch=1 n=42 v=127
96000 On ch=1 n=42 v=0
96000 On ch=1 n=42 v=127
96120 On ch=1 n=42 v=0
96240 On ch=1 n=36 v=127
96240 On ch=1 n=44 v=127
96360 On ch=1 n=36 v=0
96360 On ch=1 n=42 v=127
96360 On ch=1 n=44 v=0
96360 On ch=1 n=47 v=115
96480 On ch=1 n=42 v=0
96480 On ch=1 n=42 v=127
96480 On ch=1 n=47 v=0
96600 On ch=1 n=42 v=0
96600 On ch=1 n=46 v=127
96720 On ch=1 n=36 v=127
96720 On ch=1 n=37 v=115
96720 On ch=1 n=37 v=115
96720 On ch=1 n=46 v=0
96840 On ch=1 n=36 v=0
96840 On ch=1 n=37 v=0
96840 On ch=1 n=37 v=0
96960 On ch=1 n=38 v=127
96960 On ch=1 n=39 v=115
96960 On ch=1 n=58 v=115
97080 On ch=1 n=38 v=0
97080 On ch=1 n=39 v=0
97080 On ch=1 n=58 v=0
97200 On ch=1 n=42 v=127
97200 On ch=1 n=54 v=127
97320 On ch=1 n=42 v=0
97320 On ch=1 n=54 v=0
97440 On ch=1 n=42 v=127
97560 On ch=1 n=42 v=0
97800 On ch=1 n=42 v=127
97920 On ch=1 n=42 v=0
98040 On ch=1 n=42 v=127
98040 On ch=1 n=47 v=115
98160 On ch=1 n=36 v=127
98160 On ch=1 n=42 v=0
98160 On ch=1 n=44 v=127
98160 On ch=1 n=47 v=0
98280 On ch=1 n=36 v=0
98280 On ch=1 n=44 v=0
98400 On ch=1 n=42 v=127
98400 On ch=1 n=53 v=127
98520 On ch=1 n=42 v=0
98520 On ch=1 n=46 v=127
98520 On ch=1 n=53 v=0
98640 On ch=1 n=36 v=127
98640 On ch=1 n=42 v=127
98640 On ch=1 n=46 v=0
98760 On ch=1 n=36 v=0
98760 On ch=1 n=42 v=0
98880 On ch=1 n=38 v=127
98880 On ch=1 n=39 v=115
99000 On ch=1 n=38 v=0
99000 On ch=1 n=39 v=0
99000 On ch=1 n=47 v=115
99120 On ch=1 n=42 v=127
99120 On ch=1 n=47 v=0
99120 On ch=1 n=52 v=127
99240 On ch=1 n=42 v=0
99240 On ch=1 n=52 v=0
99360 On ch=1 n=42 v=127
99480 On ch=1 n=42 v=0
99600 On ch=1 n=38 v=127
99720 On ch=1 n=38 v=0
99720 On ch=1 n=42 v=127
99840 On ch=1 n=42 v=0
99840 On ch=1 n=42 v=127
99840 On ch=1 n=53 v=127
99960 On ch=1 n=42 v=0
99960 On ch=1 n=47 v=115
99960 On ch=1 n=53 v=0
100080 On ch=1 n=44 v=127
100080 On ch=1 n=47 v=0
100200 On ch=1 n=42 v=127
100200 On ch=1 n=44 v=0
100320 On ch=1 n=36 v=127
100320 On ch=1 n=42 v=0
100320 On ch=1 n=42 v=127
100440 On ch=1 n=36 v=0
100440 On ch=1 n=42 v=0
100440 On ch=1 n=46 v=127
100560 On ch=1 n=36 v=127
100560 On ch=1 n=37 v=115
100560 On ch=1 n=37 v=115
100560 On ch=1 n=46 v=0
100680 On ch=1 n=36 v=0
100680 On ch=1 n=37 v=0
100680 On ch=1 n=37 v=0
100800 On ch=1 n=38 v=127
100800 On ch=1 n=39 v=115
100800 On ch=1 n=58 v=115
100920 On ch=1 n=38 v=0
100920 On ch=1 n=39 v=0
100920 On ch=1 n=58 v=0
101040 On ch=1 n=42 v=127
101040 On ch=1 n=54 v=127
101160 On ch=1 n=42 v=0
101160 On ch=1 n=46 v=127
101160 On ch=1 n=54 v=0
101280 On ch=1 n=42 v=127
101280 On ch=1 n=46 v=0
101400 On ch=1 n=42 v=0
101520 On ch=1 n=44 v=127
101640 On ch=1 n=42 v=127
101640 On ch=1 n=44 v=0
101760 On ch=1 n=42 v=0
101880 On ch=1 n=42 v=127
102000 On ch=1 n=36 v=127
102000 On ch=1 n=42 v=0
102000 On ch=1 n=44 v=127
102120 On ch=1 n=36 v=0
102120 On ch=1 n=44 v=0
102120 On ch=1 n=47 v=115
102240 On ch=1 n=42 v=127
102240 On ch=1 n=47 v=0
102240 On ch=1 n=53 v=127
102360 On ch=1 n=42 v=0
102360 On ch=1 n=46 v=127
102360 On ch=1 n=53 v=0
102480 On ch=1 n=36 v=127
102480 On ch=1 n=42 v=127
102480 On ch=1 n=46 v=0
102600 On ch=1 n=36 v=0
102600 On ch=1 n=42 v=0
102720 On ch=1 n=38 v=127
102720 On ch=1 n=39 v=115
102840 On ch=1 n=38 v=0
102840 On ch=1 n=39 v=0
102840 On ch=1 n=42 v=127
102960 On ch=1 n=42 v=0
102960 On ch=1 n=42 v=127
103080 On ch=1 n=42 v=0
103200 On ch=1 n=42 v=127
103320 On ch=1 n=42 v=0
103440 On ch=1 n=42 v=127
103500 On ch=1 n=42 v=0
103500 On ch=1 n=42 v=127
103560 On ch=1 n=42 v=0
103560 On ch=1 n=42 v=127
103620 On ch=1 n=42 v=0
103620 On ch=1 n=42 v=127
103680 On ch=1 n=42 v=0
103680 On ch=1 n=42 v=127
103800 On ch=1 n=42 v=0
103920 On ch=1 n=36 v=127
103920 On ch=1 n=44 v=127
104040 On ch=1 n=36 v=0
104040 On ch=1 n=42 v=127
104040 On ch=1 n=44 v=0
104040 On ch=1 n=47 v=115
104160 On ch=1 n=42 v=0
104160 On ch=1 n=42 v=127
104160 On ch=1 n=47 v=0
104160 On ch=1 n=53 v=127
104280 On ch=1 n=42 v=0
104280 On ch=1 n=53 v=0
104320 On ch=1 n=42 v=127
104400 On ch=1 n=36 v=127
104400 On ch=1 n=37 v=115
104400 On ch=1 n=37 v=115
104440 On ch=1 n=42 v=0
104480 On ch=1 n=42 v=127
104520 On ch=1 n=36 v=0
104520 On ch=1 n=37 v=0
104520 On ch=1 n=37 v=0
104600 On ch=1 n=42 v=0
104640 On ch=1 n=38 v=127
104640 On ch=1 n=39 v=115
104640 On ch=1 n=58 v=115
104760 On ch=1 n=38 v=0
104760 On ch=1 n=39 v=0
104760 On ch=1 n=58 v=0
104880 On ch=1 n=42 v=127
104880 On ch=1 n=54 v=127
105000 On ch=1 n=42 v=0
105000 On ch=1 n=54 v=0
105120 On ch=1 n=42 v=127
105240 On ch=1 n=38 v=127
105240 On ch=1 n=42 v=0
105240 On ch=1 n=42 v=127
105360 On ch=1 n=38 v=0
105360 On ch=1 n=42 v=0
105480 On ch=1 n=42 v=127
105600 On ch=1 n=42 v=0
105720 On ch=1 n=42 v=127
105720 On ch=1 n=47 v=115
105840 On ch=1 n=36 v=127
105840 On ch=1 n=42 v=0
105840 On ch=1 n=44 v=127
105840 On ch=1 n=47 v=0
105960 On ch=1 n=36 v=0
105960 On ch=1 n=44 v=0
106080 On ch=1 n=42 v=127
106200 On ch=1 n=42 v=0
106200 On ch=1 n=46 v=127
106320 On ch=1 n=36 v=127
106320 On ch=1 n=42 v=127
106320 On ch=1 n=46 v=0
106440 On ch=1 n=36 v=0
106440 On ch=1 n=42 v=0
106560 On ch=1 n=38 v=127
106680 Off ch=1 n=38 v=64
106920 On ch=1 n=38 v=127
107040 Off ch=1 n=38 v=64
107280 On ch=1 n=38 v=127
107400 Off ch=1 n=38 v=64
107400 Meta TrkEnd
TrkEnd
